<svg xmlns="http://www.w3.org/2000/svg" width="1400" height="1712" viewBox="-90 -90 1180.00 1443.63"><style>
*{vector-effect:non-scaling-stroke}
.bg{fill:#fff}
.wall{fill:#202020;fill-rule:evenodd}
.balcony-edge{fill:none;stroke:#555;stroke-width:2}
.window{stroke:#777;stroke-width:5}
.room-label{fill:#777;font:700 18px Arial,sans-serif;letter-spacing:1px}
.furniture{fill:#e8e8e8;stroke:#555;stroke-width:1.6}
.under-desk{fill:#ededed;stroke:#555;stroke-width:1.4;stroke-dasharray:4 3}
.rug{fill:#f5f5f5;stroke:#999;stroke-width:1.2;stroke-dasharray:5 4}
.object-label{fill:#222;font:11px Arial,sans-serif}
.tiny-label{fill:#222;font:8px Arial,sans-serif}
.arrow{stroke:#555;stroke-width:1.7;fill:none;marker-end:url(#arrow)}
.title{fill:#111;font:700 24px Arial,sans-serif}
.subtitle{fill:#555;font:13px Arial,sans-serif}
</style><defs><marker id="arrow" markerWidth="8" markerHeight="8" refX="7" refY="4" orient="auto"><path d="M0,0 L8,4 L0,8 z" fill="#555"/></marker></defs><rect class="bg" x="-90" y="-90" width="1180.0" height="1443.6289666395444"/><text class="title" x="0" y="-52">Apartment Canvas — Approved Top-Down Geometry v1</text><text class="subtitle" x="0" y="-28">APPROVED 2026-08-19 · frozen X/Y geometry baseline</text><path class="wall" d="M 996.75,222.13 L 913.75,222.13 L 912.94,225.39 L 913.75,234.34 L 989.42,234.34 L 989.42,237.59 L 991.05,238.41 L 991.05,240.85 L 987.79,241.66 L 987.79,748.58 L 991.05,749.39 L 991.05,754.27 L 988.61,755.90 L 981.29,755.90 L 981.29,833.20 L 984.54,834.01 L 984.54,943.86 L 981.29,944.67 L 981.29,1028.48 L 984.54,1029.29 L 984.54,1034.99 L 981.29,1035.80 L 981.29,1152.16 L 984.54,1152.97 L 984.54,1157.04 L 981.29,1159.48 L 981.29,1230.27 L 984.54,1231.08 L 984.54,1233.52 L 982.91,1234.34 L 983.73,1236.78 L 925.96,1237.59 L 924.33,1235.96 L 923.52,1237.59 L 899.10,1237.59 L 899.10,1250.61 L 639.54,1250.61 L 639.54,1262.82 L 997.56,1262.82 L 997.56,1257.12 L 999.19,1256.31 L 999.19,1244.10 L 996.75,1243.29 Z M 791.70,222.13 L 796.58,225.39 L 796.58,231.08 L 791.70,234.34 L 793.33,232.71 L 796.58,234.34 L 807.16,234.34 L 807.16,222.13 L 796.58,222.13 L 794.96,223.76 Z M 652.56,222.13 L 652.56,234.34 L 676.97,234.34 L 679.41,231.90 L 676.97,230.27 L 676.97,226.20 L 679.41,224.57 L 676.97,222.13 Z M 351.51,46.38 L 351.51,65.09 L 427.18,65.91 L 427.18,528.07 L 431.24,528.07 L 431.24,533.77 L 419.04,533.77 L 418.23,546.79 L 440.20,546.79 L 440.20,241.66 L 436.94,240.03 L 436.94,235.15 L 521.56,234.34 L 521.56,220.50 L 436.94,221.32 L 436.94,215.62 L 440.20,214.81 L 440.20,46.38 Z M 222.95,46.38 L 223.76,65.09 L 234.34,65.09 L 234.34,46.38 Z M 1.63,46.38 L 1.63,78.11 L 0.00,85.44 L 1.63,104.96 L 1.63,1123.68 L 0.00,1124.49 L 1.63,1126.93 L 1.63,1262.82 L 515.87,1263.63 L 515.87,1249.80 L 358.83,1249.80 L 358.83,1222.95 L 361.27,1222.13 L 358.83,1220.50 L 359.64,1042.31 L 442.64,1041.50 L 443.45,1080.55 L 444.26,1003.25 L 430.43,1003.25 L 429.62,1016.27 L 304.31,1016.27 L 303.50,886.09 L 300.24,885.27 L 300.24,879.58 L 423.92,880.39 L 424.74,878.76 L 429.62,878.76 L 431.24,881.20 L 430.43,898.29 L 443.45,898.29 L 444.26,847.03 L 429.62,846.22 L 429.62,860.05 L 304.31,860.05 L 303.50,729.86 L 429.62,729.05 L 429.62,742.88 L 444.26,742.07 L 444.26,710.33 L 443.45,707.08 L 301.06,707.08 L 300.24,710.33 L 294.55,710.33 L 293.73,683.48 L 280.72,684.30 L 280.72,735.56 L 292.92,736.37 L 292.92,1015.46 L 294.55,1016.27 L 294.55,1021.97 L 280.72,1022.78 L 281.53,1041.50 L 346.62,1042.31 L 346.62,1244.10 L 345.00,1244.91 L 346.62,1246.54 L 346.62,1249.80 L 13.83,1249.80 L 13.83,1246.54 L 15.46,1244.91 L 13.83,1244.10 L 13.83,1043.12 L 20.34,1041.50 L 21.16,1045.57 L 46.38,1045.57 L 47.19,1041.50 L 51.26,1041.50 L 53.70,1043.12 L 53.70,1045.57 L 137.51,1045.57 L 137.51,1043.12 L 140.76,1041.50 L 157.04,1041.50 L 158.67,1039.06 L 157.04,1038.24 L 157.04,1022.78 L 15.46,1022.78 L 13.83,1019.53 L 13.83,853.54 L 17.90,852.73 L 20.34,853.54 L 21.16,855.98 L 137.51,855.98 L 138.32,852.73 L 144.02,852.73 L 144.02,840.52 L 13.83,839.71 L 13.83,547.60 L 280.72,546.79 L 280.72,559.80 L 282.34,560.62 L 293.73,559.80 L 293.73,547.60 L 300.24,546.79 L 300.24,530.51 L 21.16,530.51 L 20.34,534.58 L 13.83,532.95 L 13.83,65.91 L 117.17,65.09 L 117.98,59.40 L 117.17,46.38 Z"/><polyline class="balcony-edge" points="441.01,4.07 996.75,4.07 996.75,222.13"/><line class="window" x1="118.80" y1="52.89" x2="222.95" y2="52.89"/><line class="window" x1="235.96" y1="52.89" x2="353.13" y2="52.89"/><line class="window" x1="677.79" y1="228.64" x2="795.77" y2="228.64"/><line class="window" x1="807.97" y1="228.64" x2="912.94" y2="228.64"/><text class="room-label" x="200.16" y="291.29" text-anchor="middle">BEDROOM</text><text class="room-label" x="716.84" y="478.44" text-anchor="middle">LIVING</text><text class="room-label" x="724.98" y="1117.17" text-anchor="middle">KITCHEN</text><text class="room-label" x="90.32" y="722.54" text-anchor="middle">BATH</text><text class="room-label" x="171.68" y="1133.44" text-anchor="middle">CLOSET</text><text class="room-label" x="427.99" y="1157.85" text-anchor="middle">ENTRY</text><text class="room-label" x="745.32" y="116.35" text-anchor="middle">BALCONY</text><text class="room-label" x="366.97" y="779.50" text-anchor="middle">LAUNDRY</text><text class="room-label" x="366.97" y="946.30" text-anchor="middle">WH</text><rect class="rug" x="570.38" y="295.36" width="382.42" height="349.88" rx="3"/><text class="object-label" x="761.59" y="470.30" text-anchor="middle"><tspan x="761.59" dy="0">Rug</tspan></text><rect class="rug" x="790.07" y="840.52" width="65.09" height="280.72" rx="3"/><text class="object-label" x="822.62" y="980.88" text-anchor="middle"><tspan x="822.62" dy="0">Runner</tspan></text><rect class="furniture" x="14.65" y="65.91" width="244.10" height="203.42" rx="3"/><text class="object-label" x="136.70" y="167.62" text-anchor="middle"><tspan x="136.70" dy="0">Bed</tspan></text><rect class="furniture" x="60.21" y="484.13" width="237.59" height="46.38" rx="3"/><text class="object-label" x="179.00" y="507.32" text-anchor="middle"><tspan x="179.00" dy="0">Desk — main</tspan></text><rect class="furniture" x="14.65" y="277.46" width="45.57" height="253.05" rx="3"/><text class="object-label" x="37.44" y="403.99" text-anchor="middle"><tspan x="37.44" dy="0">Desk — thin return</tspan></text><rect class="furniture" x="151.34" y="414.16" width="63.47" height="66.72" rx="3"/><text class="object-label" x="183.07" y="447.52" text-anchor="middle"><tspan x="183.07" dy="0">Desk chair</tspan></text><rect class="furniture" x="18.71" y="303.50" width="34.17" height="22.78" rx="3"/><text class="object-label" x="35.80" y="314.89" text-anchor="middle"><tspan x="35.80" dy="0">Projector ↗</tspan></text><rect class="furniture" x="865.74" y="315.70" width="117.98" height="244.10" rx="3"/><text class="object-label" x="924.73" y="437.75" text-anchor="middle"><tspan x="924.73" dy="0">Brown couch</tspan></text><rect class="furniture" x="711.15" y="383.24" width="104.15" height="169.24" rx="3"/><text class="object-label" x="763.23" y="467.86" text-anchor="middle"><tspan x="763.23" dy="0">Coffee table</tspan></text><ellipse class="furniture" cx="735.15" cy="301.47" rx="50.85" ry="50.85"/><text class="tiny-label" x="735.15" y="301.47" text-anchor="middle" dominant-baseline="middle">White chair</text><rect class="furniture" x="448.33" y="301.87" width="56.96" height="219.69" rx="3"/><text class="object-label" x="476.81" y="411.72" text-anchor="middle"><tspan x="476.81" dy="0">TV stand</tspan></text><rect class="furniture" x="464.61" y="327.91" width="14.65" height="166.80" rx="3"/><text class="object-label" x="471.94" y="411.31" text-anchor="middle"><tspan x="471.94" dy="0">TV</tspan></text><rect class="furniture" x="453.21" y="259.56" width="32.55" height="42.31" rx="3"/><text class="object-label" x="469.48" y="280.72" text-anchor="middle"><tspan x="469.48" dy="0">Sub</tspan></text><rect class="furniture" x="916.19" y="238.41" width="58.58" height="65.09" rx="3"/><text class="object-label" x="945.48" y="263.95" text-anchor="middle"><tspan x="945.48" dy="0">End table</tspan><tspan x="945.48" dy="14">Alexa / Sonos</tspan></text><ellipse class="furniture" cx="942.24" cy="252.24" rx="9.77" ry="9.77"/><text class="tiny-label" x="942.24" y="252.24" text-anchor="middle" dominant-baseline="middle">L1</text><ellipse class="furniture" cx="882.02" cy="632.22" rx="19.53" ry="19.53"/><text class="tiny-label" x="882.02" y="632.22" text-anchor="middle" dominant-baseline="middle">Snake</text><ellipse class="furniture" cx="927.59" cy="656.63" rx="19.53" ry="19.53"/><text class="tiny-label" x="927.59" y="656.63" text-anchor="middle" dominant-baseline="middle">ZZ</text><rect class="furniture" x="623.27" y="755.09" width="134.26" height="296.99" rx="3"/><text class="object-label" x="690.40" y="903.59" text-anchor="middle"><tspan x="690.40" dy="0">Island</tspan></text><rect class="furniture" x="651.75" y="873.07" width="77.30" height="93.57" rx="3"/><text class="object-label" x="690.40" y="919.86" text-anchor="middle"><tspan x="690.40" dy="0">Sink</tspan></text><ellipse class="furniture" cx="592.35" cy="851.91" rx="19.53" ry="19.53"/><text class="tiny-label" x="592.35" y="851.91" text-anchor="middle" dominant-baseline="middle">Stool</text><ellipse class="furniture" cx="592.35" cy="969.90" rx="19.53" ry="19.53"/><text class="tiny-label" x="592.35" y="969.90" text-anchor="middle" dominant-baseline="middle">Stool</text><ellipse class="furniture" cx="699.75" cy="809.61" rx="9.77" ry="9.77"/><text class="tiny-label" x="699.75" y="809.61" text-anchor="middle" dominant-baseline="middle">P1</text><ellipse class="furniture" cx="699.75" cy="988.61" rx="9.77" ry="9.77"/><text class="tiny-label" x="699.75" y="988.61" text-anchor="middle" dominant-baseline="middle">P2</text><rect class="furniture" x="895.85" y="718.47" width="87.88" height="528.89" rx="3"/><text class="object-label" x="939.79" y="982.91" text-anchor="middle"><tspan x="939.79" dy="0">Cabinet run</tspan></text><rect class="furniture" x="899.92" y="790.07" width="81.37" height="136.70" rx="3"/><text class="object-label" x="940.61" y="858.42" text-anchor="middle"><tspan x="940.61" dy="0">Stove / oven</tspan></text><rect class="furniture" x="898.29" y="1027.66" width="81.37" height="126.12" rx="3"/><text class="object-label" x="938.97" y="1090.72" text-anchor="middle"><tspan x="938.97" dy="0">Fridge</tspan></text><rect class="furniture" x="899.92" y="1165.99" width="81.37" height="74.86" rx="3"/><text class="object-label" x="940.61" y="1203.42" text-anchor="middle"><tspan x="940.61" dy="0">Pantry</tspan></text><rect class="furniture" x="9.76" y="567.13" width="74.86" height="195.28" rx="3"/><text class="object-label" x="47.19" y="664.77" text-anchor="middle"><tspan x="47.19" dy="0">Vanity</tspan></text><ellipse class="furniture" cx="65.91" cy="802.28" rx="48.01" ry="33.36"/><text class="tiny-label" x="65.91" y="802.28" text-anchor="middle" dominant-baseline="middle">Toilet</text><rect class="furniture" x="17.90" y="855.17" width="131.81" height="169.24" rx="3"/><text class="object-label" x="83.81" y="939.79" text-anchor="middle"><tspan x="83.81" dy="0">Shower</tspan></text><rect class="furniture" x="310.01" y="734.74" width="113.91" height="97.64" rx="3"/><text class="object-label" x="366.96" y="783.56" text-anchor="middle"><tspan x="366.96" dy="0">Laundry</tspan></text><ellipse class="furniture" cx="366.97" cy="946.30" rx="52.89" ry="56.95"/><text class="tiny-label" x="366.97" y="946.30" text-anchor="middle" dominant-baseline="middle">WH</text><rect class="furniture" x="359.64" y="1064.28" width="66.72" height="174.94" rx="3"/><text class="object-label" x="393.00" y="1144.75" text-anchor="middle"><tspan x="393.00" dy="0">Entry</tspan><tspan x="393.00" dy="14">cubby</tspan></text><rect class="furniture" x="273.39" y="1069.98" width="73.23" height="141.58" rx="3"/><text class="object-label" x="310.00" y="1133.77" text-anchor="middle"><tspan x="310.00" dy="0">Closet</tspan><tspan x="310.00" dy="14">dresser</tspan></text><rect class="furniture" x="147.27" y="515.87" width="63.47" height="14.65" rx="3"/><text class="object-label" x="179.00" y="523.20" text-anchor="middle"><tspan x="179.00" dy="0">Monitor</tspan></text><ellipse class="furniture" cx="135.06" cy="521.57" rx="5.70" ry="5.70"/><text class="tiny-label" x="135.06" y="521.57" text-anchor="middle" dominant-baseline="middle">Mic</text><ellipse class="furniture" cx="224.57" cy="519.94" rx="7.33" ry="7.33"/><text class="tiny-label" x="224.57" y="519.94" text-anchor="middle" dominant-baseline="middle">Headphones</text><ellipse class="furniture" cx="78.93" cy="518.31" rx="8.95" ry="8.95"/><text class="tiny-label" x="78.93" y="518.31" text-anchor="middle" dominant-baseline="middle">L2</text><ellipse class="furniture" cx="285.60" cy="518.31" rx="8.95" ry="8.95"/><text class="tiny-label" x="285.60" y="518.31" text-anchor="middle" dominant-baseline="middle">L5</text><ellipse class="furniture" cx="265.25" cy="521.57" rx="7.33" ry="7.33"/><text class="tiny-label" x="265.25" y="521.57" text-anchor="middle" dominant-baseline="middle">Alexa</text><rect class="under-desk" x="96.01" y="489.83" width="22.78" height="34.99" rx="3"/><text class="object-label" x="107.40" y="500.32" text-anchor="middle"><tspan x="107.40" dy="0">PC tower</tspan><tspan x="107.40" dy="14">(under)</tspan></text><rect class="furniture" x="961.76" y="829.13" width="19.53" height="58.58" rx="3"/><text class="object-label" x="971.52" y="858.42" text-anchor="middle"><tspan x="971.52" dy="0">MW</tspan></text><line class="arrow" x1="52.89" y1="314.89" x2="440.20" y2="161.11"/><text class="tiny-label" x="366.97" y="545.97" text-anchor="middle">bedroom opening</text><text class="tiny-label" x="582.59" y="209.93" text-anchor="middle">balcony door</text><text class="tiny-label" x="574.45" y="1243.29" text-anchor="middle">front door</text></svg>